<svg id="Capa_1" enable-background="new 0 0 512 512" height="512" viewBox="0 0 512 512" width="512" xmlns="http://www.w3.org/2000/svg"><g><g><g><path d="m437.36 434.936c99.519-99.519 99.52-260.872.001-360.392-99.744-99.744-262.512-99.185-361.598 1.213-82.163 83.25-95.364 208.984-39.632 305.904 2.279 3.963 2.742 8.713 1.245 13.032l-36.916 106.483c-2.207 6.367 3.9 12.475 10.268 10.268l106.481-36.914c4.328-1.5 9.085-1.026 13.056 1.257 97.389 55.987 223.864 42.381 307.095-40.851z" fill="#eaf2ff"/><g><g><g><g><g><circle cx="257.164" cy="254.74" fill="#9bc4f9" r="180.195"/></g></g><path d="m384.582 127.323c-43.749-43.749-104.395-60.291-160.93-49.643 34.403 6.479 67.284 23.021 93.905 49.643 70.371 70.371 70.371 184.464 0 254.835-26.622 26.622-59.503 43.164-93.905 49.643 56.535 10.648 117.181-5.895 160.93-49.643 70.37-70.371 70.37-184.465 0-254.835z" fill="#7fb2f9"/></g></g></g></g></g><path d="m345.279 322.405c4.443-21.203 6.772-44.097 6.772-67.664 0-23.568-2.329-46.463-6.772-67.665 29.207-3.192 54.081-7.954 71.214-13.893.403-.14.786-.31 1.149-.506-2.36-4.613-4.932-9.145-7.716-13.582-16.519 5.502-40.316 9.908-68.252 12.861-4.162-15.499-9.523-29.87-15.989-42.663-16.087-31.824-37.446-50.76-60.795-54.184v-.399c-2.534-.108-5.07-.163-7.606-.164-.04 0-.08-.001-.12-.001s-.08.001-.12.001c-2.536.002-5.072.056-7.606.164v.399c-23.35 3.424-44.709 22.359-60.795 54.184-6.466 12.793-11.827 27.164-15.989 42.663-27.935-2.953-51.732-7.359-68.251-12.862-2.784 4.438-5.356 8.97-7.716 13.583.364.197.748.367 1.152.508 17.133 5.938 42.006 10.7 71.211 13.891-4.443 21.203-6.772 44.097-6.772 67.665 0 23.567 2.329 46.462 6.772 67.665-29.207 3.192-54.081 7.954-71.214 13.893-.403.14-.786.309-1.149.506 2.36 4.613 4.932 9.145 7.716 13.582 16.52-5.502 40.317-9.908 68.252-12.861 4.162 15.499 9.523 29.87 15.989 42.663 16.087 31.824 37.446 50.76 60.795 54.184v.399c2.548.109 5.097.163 7.646.164.027 0 .053.001.08.001s.053-.001.08-.001c2.549-.001 5.099-.056 7.646-.164v-.399c23.35-3.424 44.709-22.359 60.795-54.184 6.466-12.793 11.827-27.164 15.989-42.663 27.936 2.953 51.733 7.359 68.252 12.861 2.784-4.437 5.356-8.97 7.716-13.582-.363-.196-.747-.366-1.149-.506-17.133-5.94-42.008-10.702-71.215-13.894zm-8.616-67.665c0 23.156-2.335 45.564-6.782 66.162-20.341-1.756-42.339-2.788-64.991-2.98v-126.365c22.652-.192 44.65-1.224 64.991-2.98 4.448 20.598 6.782 43.007 6.782 66.163zm-24.71-118.506c5.651 11.18 10.401 23.689 14.179 37.179-19.179 1.58-39.886 2.51-61.242 2.691v-85.369c17.423 3.628 33.902 19.463 47.063 45.499zm-109.578 0c13.16-26.035 29.64-41.871 47.062-45.498v85.369c-21.356-.181-42.062-1.112-61.242-2.692 3.779-13.491 8.529-25.999 14.18-37.179zm-24.711 118.506c0-23.156 2.335-45.565 6.782-66.163 20.341 1.756 42.339 2.788 64.991 2.98v126.366c-22.652.192-44.65 1.224-64.991 2.98-4.447-20.598-6.782-43.007-6.782-66.163zm24.711 118.506c-5.651-11.18-10.401-23.688-14.18-37.179 19.18-1.58 39.886-2.51 61.242-2.691v85.368c-17.422-3.627-33.901-19.463-47.062-45.498zm109.578 0c-13.16 26.035-29.64 41.871-47.062 45.499v-85.368c21.356.181 42.062 1.112 61.242 2.691-3.779 13.49-8.529 25.998-14.18 37.178z" fill="#7fb2f9"/><g fill="#60a0f7"><path d="m356.646 185.725c24.292-3.124 44.983-7.391 59.847-12.543.403-.14.786-.31 1.149-.506-.735-1.437-1.491-2.866-2.268-4.287-.004-.007-.007-.013-.011-.02-.149-.273-.3-.546-.45-.819-.01-.019-.021-.037-.031-.056-.15-.271-.301-.543-.453-.813-.006-.01-.011-.02-.017-.03-.944-1.684-1.918-3.356-2.921-5.016-.01-.017-.021-.035-.031-.052-.157-.26-.315-.52-.474-.779-.016-.026-.032-.052-.048-.078-.156-.255-.313-.51-.471-.765-.018-.028-.035-.057-.053-.086-.162-.261-.324-.521-.487-.781-14.899 4.963-35.718 9.033-60.153 11.95 2.523 4.81 4.813 9.709 6.872 14.681z"/><path d="m317.558 382.157c-8.96 8.96-18.63 16.779-28.827 23.456-7.565 6.964-15.591 11.411-23.828 13.129-10.1 4.601-20.538 8.221-31.169 10.86 5.104 2.384 10.352 3.984 15.705 4.769v.391c5.148.22 10.304.22 15.453.001v-.392c23.35-3.424 44.709-22.359 60.795-54.184 2.392-4.732 4.632-9.68 6.717-14.821-4.543 5.825-9.49 11.435-14.846 16.791z"/><path d="m416.493 336.298c-14.864-5.152-35.555-9.419-59.847-12.543-2.059 4.973-4.35 9.872-6.873 14.681 24.436 2.917 45.255 6.988 60.153 11.95.169-.269.336-.538.503-.807l.027-.043c.165-.267.33-.534.493-.801.008-.012.015-.024.023-.037.166-.272.332-.544.496-.816.001-.002.003-.004.004-.006 1.005-1.663 1.981-3.338 2.928-5.026.012-.021.023-.042.035-.063.146-.262.292-.523.438-.785.016-.029.032-.058.048-.088.146-.263.291-.527.435-.791.01-.018.02-.036.03-.055.772-1.414 1.524-2.836 2.256-4.265-.363-.196-.746-.366-1.149-.505z"/><path d="m264.901 90.737c8.238 1.718 16.265 6.165 23.83 13.13 10.197 6.677 19.866 14.495 28.826 23.455 5.356 5.356 10.304 10.966 14.845 16.79-2.085-5.141-4.325-10.089-6.717-14.82-16.087-31.824-37.446-50.76-60.795-54.184v-.392c-5.148-.219-10.304-.219-15.453.001v.391c-5.353.785-10.601 2.386-15.705 4.769 10.631 2.64 21.069 6.26 31.169 10.86z"/></g></g></svg>