<svg id="Capa_1" enable-background="new 0 0 512 512" height="512" viewBox="0 0 512 512" width="512" xmlns="http://www.w3.org/2000/svg"><g><path d="m372.141 256.096c0-81.483-54.464-150.238-128.971-171.867-89.188 6.564-159.508 81.003-159.508 171.867s70.32 165.303 159.508 171.867c74.508-21.629 128.971-90.383 128.971-171.867z" fill="#eaf2ff"/><path d="m256 83.758c-11.537 0-22.806 1.143-33.708 3.305 79.04 15.674 138.63 85.39 138.63 169.033s-59.59 153.359-138.63 169.033c10.902 2.162 22.171 3.305 33.708 3.305 95.18 0 172.338-77.158 172.338-172.338s-77.158-172.338-172.338-172.338z" fill="#dbe8f9"/><g><g><path d="m511.802 226.831c-.048-13.748-11.255-24.843-25.004-24.752h-.01c-.159.001-.318-.001-.476-.003-4.769-.075-8.89-3.339-10.178-7.931-5.544-19.763-13.801-38.92-24.753-56.894 1.243-2.836 3.013-5.476 5.312-7.744 9.657-9.527 9.324-25.5-.302-35.059l-40.15-39.871c-9.693-9.626-25.533-9.856-35.056-.061-.265.272-.535.537-.809.795-3.368 3.159-8.456 3.597-12.482 1.335-16.408-9.219-33.705-16.259-51.476-21.111-4.606-1.258-7.904-5.36-8.011-10.133-.004-.156-.006-.311-.006-.467v-.011c-.09-13.773-11.306-24.877-25.08-24.829l-56.751.2c-13.726.048-24.774 11.288-24.586 25.013.001.157 0 .315-.003.472-.075 4.772-3.341 8.895-7.937 10.185-17.738 4.976-34.988 12.138-51.333 21.473-4.008 2.289-9.097 1.886-12.487-1.247-.277-.256-.549-.519-.816-.79-9.593-9.727-25.43-9.389-35.056.305l-39.87 40.149c-9.558 9.625-9.782 25.601-.058 35.06.108.105.215.212.321.318 3.449 3.481 4.127 8.832 1.729 13.106-9.181 16.367-16.196 33.618-21.034 51.339-1.291 4.727-5.607 7.991-10.507 8.018l-.094.001h-.01c-13.773.09-24.877 11.306-24.829 25.08l.198 56.506c.049 13.761 11.243 24.878 25.004 24.83h.01c.156-.001.312 0 .467.003 4.775.074 8.9 3.343 10.19 7.94 4.971 17.718 12.123 34.949 21.442 51.277 2.399 4.204 1.756 9.479-1.612 12.956-.131.135-.263.268-.397.401-9.657 9.522-9.317 25.498.307 35.055l40.15 39.87c9.694 9.627 25.533 9.853 35.058.059.265-.272.535-.537.81-.795 3.367-3.157 8.452-3.596 12.476-1.335 16.41 9.221 33.711 16.262 51.483 21.114l122.383-.432c17.729-4.975 34.97-12.134 51.308-21.463 4.017-2.293 9.116-1.89 12.51 1.252.27.251.536.508.797.772 9.598 9.727 25.434 9.397 35.063-.299l39.87-40.15c9.558-9.626 9.781-25.602.058-35.06-2.315-2.252-4.104-4.88-5.367-7.707 10.826-18.05 18.948-37.264 24.354-57.064 1.256-4.602 5.355-7.895 10.124-8.004.158-.004.316-.006.475-.006h.01c13.761-.048 24.878-11.243 24.829-25.004zm-255.802 201.603c-95.18 0-172.338-77.158-172.338-172.338s77.158-172.338 172.338-172.338 172.338 77.158 172.338 172.338-77.158 172.338-172.338 172.338z" fill="#7fb2f9"/><g><g><g><g><path d="m243.91 483.528c.401-20.681-.649-34.632.211-49.208h-43.257v58.414c0 10.588 8.583 19.171 19.171 19.171h17.991l5.966-3.574z" fill="#dbe8f9"/><path d="m247.806 408.587c5.661-24.929 17.233-48.309 34.255-67.798 66.634-76.289 27.99-175.334-49.67-200.842-54.838 11.076-96.311 59.941-96.053 117.855.137 30.94 12.018 59.105 31.415 80.271 21.851 23.844 35.655 53.742 39.738 85.495h37.631c.606-4.697 1.468-9.62 2.684-14.981z" fill="#ffe07d"/><path d="m255.115 137.599c-11.243.081-22.126 1.734-32.441 4.744 49.805 14.475 86.209 60.441 86.209 114.916 0 31.062-11.837 59.358-31.245 80.627-.781.855-1.551 1.719-2.311 2.589-20.426 23.386-32.849 52.487-36.435 83.093h65.626c4.117-31.815 18.043-61.73 39.901-85.682 19.408-21.269 31.245-49.564 31.245-80.627 0-66.383-54.055-120.141-120.549-119.66z" fill="#ffd064"/></g><g fill="#eaf2ff"><path d="m225.073 352.718c1.892 3.616 2.893 7.683 2.893 11.765v42.462h15.453v-42.462c0-6.567-1.61-13.114-4.655-18.932l-25.373-48.47c-1.978-3.78-6.646-5.24-10.429-3.262-3.78 1.979-5.241 6.648-3.262 10.429z"/><path d="m284.034 406.945v-42.462c0-4.081 1-8.149 2.893-11.765l25.373-48.47c1.979-3.781.519-8.45-3.262-10.429-3.782-1.979-8.45-.518-10.429 3.262l-25.374 48.471c-3.045 5.819-4.655 12.365-4.655 18.931v42.462z"/></g><g><path d="m288.968 316.023c-7.373 0-11.376-4.095-13.768-6.541-1.849-1.89-1.981-1.89-2.719-1.89-.737 0-.869 0-2.717 1.89-2.392 2.447-6.394 6.541-13.768 6.541-7.373 0-11.376-4.095-13.767-6.541-1.848-1.89-1.98-1.89-2.717-1.89s-.869 0-2.717 1.89c-2.391 2.447-6.394 6.541-13.767 6.541s-11.376-4.095-13.767-6.541c-1.848-1.89-1.98-1.89-2.717-1.89-4.267 0-7.726-3.459-7.726-7.726s3.459-7.726 7.726-7.726c7.373 0 11.376 4.095 13.767 6.541 1.848 1.89 1.98 1.89 2.717 1.89s.869 0 2.717-1.89c2.391-2.447 6.395-6.541 13.767-6.541 7.373 0 11.376 4.095 13.767 6.541 1.848 1.89 1.98 1.89 2.717 1.89.736 0 .869 0 2.717-1.89 2.392-2.447 6.394-6.541 13.768-6.541s11.376 4.095 13.768 6.541c1.849 1.89 1.981 1.89 2.719 1.89s.87 0 2.719-1.89c2.392-2.447 6.395-6.541 13.768-6.541 4.267 0 7.726 3.459 7.726 7.726s-3.459 7.726-7.726 7.726c-.737 0-.87 0-2.719 1.89-2.391 2.447-6.394 6.541-13.768 6.541z" fill="#dbe8f9"/></g></g><g><path d="m247.806 408.587c.125-.548.253-1.096.383-1.642h-46.792c-10.145 0-18.368 8.224-18.368 18.368 0 10.145 8.224 18.368 18.368 18.368h42.4c.149-11.164.989-21.776 4.009-35.094z" fill="#dbe8f9"/></g><g><path d="m243.798 443.682h-42.4c-10.145 0-18.368 8.224-18.368 18.368 0 10.145 8.224 18.368 18.368 18.368h42.563c.192-14.703-.307-25.977-.163-36.736z" fill="#eaf2ff"/></g><g><path d="m237.999 434.32c-.136 2.778-.209 5.562-.2 8.353l.225 69.231h53.942c10.588 0 19.171-8.583 19.171-19.171v-58.413z" fill="#bcd6f9"/></g><path d="m310.603 406.945h-68.861c-2.646 11.648-3.982 23.639-3.943 35.729l.003 1.008h72.8c10.145 0 18.368-8.224 18.368-18.368s-8.223-18.369-18.367-18.369z" fill="#bcd6f9"/><path d="m310.603 443.682h-72.8l.12 36.737h72.681c10.145 0 18.368-8.224 18.368-18.368-.001-10.146-8.225-18.369-18.369-18.369z" fill="#dbe8f9"/></g></g></g></g></g></svg>